<svg width="34" height="34" viewBox="0 0 34 34" fill="none" xmlns="http://www.w3.org/2000/svg">
<path fill-rule="evenodd" clip-rule="evenodd" d="M16.9139 0.875L19.25 0.875001C19.8713 0.875001 20.375 1.37868 20.375 2C20.375 2.62132 19.8713 3.125 19.25 3.125H17C13.4327 3.125 10.8703 3.12739 8.92036 3.38956C7.00276 3.64737 5.84668 4.13771 4.99219 4.99219C4.13771 5.84668 3.64737 7.00276 3.38956 8.92036C3.12739 10.8703 3.125 13.4327 3.125 17C3.125 20.5673 3.12739 23.1297 3.38956 25.0796C3.64737 26.9972 4.13771 28.1533 4.99219 29.0078C5.84668 29.8623 7.00276 30.3526 8.92036 30.6104C10.8703 30.8726 13.4327 30.875 17 30.875C20.5673 30.875 23.1297 30.8726 25.0796 30.6104C26.9972 30.3526 28.1533 29.8623 29.0078 29.0078C29.8623 28.1533 30.3526 26.9972 30.6104 25.0796C30.8726 23.1297 30.875 20.5673 30.875 17V14.75C30.875 14.1287 31.3787 13.625 32 13.625C32.6213 13.625 33.125 14.1287 33.125 14.75V17.0861C33.125 20.5487 33.125 23.2622 32.8404 25.3794C32.549 27.5465 31.941 29.2566 30.5988 30.5988C29.2566 31.941 27.5465 32.549 25.3794 32.8404C23.2622 33.125 20.5487 33.125 17.0861 33.125H16.9139C13.4513 33.125 10.7378 33.125 8.62056 32.8404C6.45345 32.549 4.74342 31.941 3.4012 30.5988C2.05899 29.2566 1.45098 27.5465 1.15962 25.3794C0.874966 23.2622 0.874981 20.5487 0.875 17.0861V16.9139C0.874981 13.4513 0.874966 10.7378 1.15962 8.62056C1.45098 6.45345 2.05899 4.74342 3.4012 3.4012C4.74342 2.05899 6.45345 1.45098 8.62056 1.15962C10.7378 0.874966 13.4513 0.874981 16.9139 0.875ZM24.1558 2.41387C26.2076 0.362043 29.5343 0.362043 31.5861 2.41387C33.638 4.4657 33.638 7.79237 31.5861 9.8442L21.614 19.8164C21.0571 20.3734 20.7082 20.7223 20.3189 21.0259C19.8603 21.3836 19.3642 21.6902 18.8392 21.9404C18.3935 22.1528 17.9254 22.3088 17.1782 22.5578L12.8214 24.0101C12.017 24.2782 11.1302 24.0689 10.5307 23.4693C9.93113 22.8698 9.72178 21.983 9.9899 21.1786L11.4422 16.8218C11.6912 16.0746 11.8472 15.6065 12.0596 15.1608C12.3098 14.6358 12.6164 14.1397 12.9741 13.6811C13.2777 13.2918 13.6267 12.9429 14.1837 12.386L24.1558 2.41387ZM29.9951 4.00486C28.822 2.83171 26.9199 2.83171 25.7468 4.00486L25.1819 4.56979C25.2159 4.71359 25.2635 4.88491 25.3298 5.076C25.5448 5.69558 25.9516 6.51157 26.72 7.27999C27.4884 8.04841 28.3044 8.4552 28.924 8.67015C29.1151 8.73645 29.2864 8.78409 29.4302 8.81814L29.9951 8.25321C31.1683 7.08006 31.1683 5.17801 29.9951 4.00486ZM27.6577 10.5906C26.8838 10.2578 25.9822 9.72419 25.129 8.87098C24.2758 8.01777 23.7422 7.11623 23.4094 6.34228L15.8263 13.9254C15.2015 14.5502 14.9565 14.7979 14.7482 15.0649C14.4911 15.3946 14.2706 15.7513 14.0907 16.1288C13.945 16.4344 13.833 16.7644 13.5536 17.6026L12.9058 19.5461L14.4539 21.0942L16.3974 20.4464C17.2356 20.167 17.5656 20.0549 17.8712 19.9093C18.2487 19.7294 18.6054 19.5089 18.9351 19.2518C19.2021 19.0435 19.4498 18.7985 20.0746 18.1737L27.6577 10.5906Z" fill="white"/>
</svg>
